<svg width="29" height="29" viewBox="0 0 29 29" fill="none" xmlns="http://www.w3.org/2000/svg">
<circle cx="14.5" cy="14.5" r="14.5" fill="white"/>
<path d="M18.9638 8.11035H11.365C9.97186 8.11035 8.83203 9.25018 8.83203 10.6433V18.2422C8.83203 19.6353 9.97186 20.7751 11.365 20.7751H18.9638C20.357 20.7751 21.4968 19.6353 21.4968 18.2422V10.6433C21.4968 9.25018 20.357 8.11035 18.9638 8.11035ZM20.2303 19.0865C20.2303 19.3398 20.0614 19.5086 19.8081 19.5086H10.5207C10.2674 19.5086 10.0985 19.3398 10.0985 19.0865V13.5984H12.7581C13.0958 12.6274 14.0246 11.9098 15.1644 11.9098C16.262 11.9098 17.1908 12.6274 17.5707 13.5984H20.2303V19.0865ZM20.2303 11.4876C20.2303 11.7409 20.0614 11.9098 19.8081 11.9098H18.1195C17.8662 11.9098 17.6974 11.7409 17.6974 11.4876V9.79898C17.6974 9.54569 17.8662 9.37683 18.1195 9.37683H19.8081C20.0614 9.37683 20.2303 9.54569 20.2303 9.79898V11.4876Z" fill="#81CF90"/>
<path d="M18.2879 12.332H16.5148C17.1903 12.7964 17.6546 13.5563 17.6546 14.4428C17.6546 15.8359 16.5148 16.9758 15.1217 16.9758C13.7286 16.9758 12.5887 15.8359 12.5887 14.4428C12.5887 13.5563 13.0531 12.7964 13.7286 12.332H11.9555C11.5333 12.9231 11.3223 13.6407 11.3223 14.4428C11.3223 16.5536 13.0109 18.2422 15.1217 18.2422C17.2325 18.2422 18.9211 16.5536 18.9211 14.4428C18.9633 13.6407 18.71 12.9231 18.2879 12.332Z" fill="#81CF90"/>
</svg>
