<svg width="29" height="29" viewBox="0 0 29 29" fill="none" xmlns="http://www.w3.org/2000/svg">
<circle cx="14.5" cy="14.5" r="14.5" fill="#81CF90"/>
<path d="M13.4236 17.0308C12.4418 16.9284 11.5566 16.6866 10.7987 16.0938C10.7046 16.0201 10.6075 15.949 10.5217 15.8666C10.19 15.548 10.1566 15.1831 10.4191 14.8071C10.6436 14.4853 11.0206 14.3992 11.4124 14.584C11.4883 14.6198 11.5605 14.6645 11.6298 14.7125C13.0423 15.6831 14.9826 15.7099 16.4004 14.7562C16.5409 14.6485 16.691 14.5607 16.8651 14.5158C17.2034 14.429 17.519 14.5532 17.7006 14.8493C17.908 15.1874 17.9054 15.5174 17.6498 15.7799C17.2577 16.1823 16.7861 16.4735 16.2622 16.6767C15.7668 16.8687 15.2242 16.9654 14.6871 17.0296C14.7682 17.1178 14.8064 17.1612 14.857 17.2121C15.5863 17.9448 16.3187 18.6745 17.0456 19.4094C17.2932 19.6599 17.345 19.9704 17.2086 20.2616C17.0595 20.58 16.7258 20.7894 16.3986 20.767C16.1913 20.7527 16.0296 20.6495 15.8859 20.5048C15.3356 19.951 14.7749 19.4074 14.2358 18.8432C14.0788 18.6791 14.0034 18.7102 13.8649 18.8526C13.3113 19.4226 12.7486 19.9838 12.1826 20.5418C11.9285 20.7923 11.6261 20.8374 11.3313 20.6943C11.0181 20.5424 10.8187 20.2227 10.8341 19.9013C10.8447 19.6839 10.9516 19.5178 11.1008 19.3689C11.8225 18.6482 12.5422 17.9257 13.2622 17.2039C13.3098 17.1559 13.3542 17.105 13.4236 17.0308Z" fill="white"/>
<path d="M14.0218 14.5207C12.2703 14.5147 10.8341 13.0627 10.8443 11.3084C10.8544 9.53478 12.2915 8.10546 14.0603 8.11036C15.8326 8.11514 17.2552 9.56502 17.2463 11.3571C17.2373 13.1078 15.7911 14.5268 14.0218 14.5207ZM15.6136 11.3127C15.6106 10.4416 14.9169 9.7482 14.0475 9.7474C13.1709 9.74647 12.471 10.4525 12.4777 11.3315C12.4842 12.1992 13.1839 12.8878 14.0556 12.8846C14.9247 12.8815 15.6165 12.1836 15.6136 11.3127Z" fill="white"/>
</svg>
