<svg width="20" height="12" viewBox="0 0 20 12" fill="none" xmlns="http://www.w3.org/2000/svg">
<path d="M9.99973 11.4054C5.75649 11.4054 2.17973 8.14241 0.839193 6.73971C0.648468 6.54067 0.541992 6.27565 0.541992 5.99998C0.541992 5.72431 0.648468 5.45929 0.839193 5.26025C2.17973 3.85755 5.75649 0.594574 9.99973 0.594574C14.243 0.594574 17.8197 3.85755 19.1603 5.26025C19.351 5.45929 19.4575 5.72431 19.4575 5.99998C19.4575 6.27565 19.351 6.54067 19.1603 6.73971C17.8197 8.14241 14.243 11.4054 9.99973 11.4054ZM9.99973 1.13511C5.96433 1.13511 2.52244 4.28106 1.23 5.63376C1.1341 5.73153 1.08038 5.86302 1.08038 5.99998C1.08038 6.13693 1.1341 6.26843 1.23 6.3662C2.52244 7.7189 5.96433 10.8648 9.99973 10.8648C14.0351 10.8648 17.477 7.7189 18.7695 6.3662C18.8653 6.26839 18.919 6.13691 18.919 5.99998C18.919 5.86305 18.8653 5.73157 18.7695 5.63376V5.63376C17.477 4.28106 14.0351 1.13511 9.99973 1.13511Z" fill="#1D1D1D"/>
<path d="M10.0006 9.7838C9.25222 9.7838 8.52066 9.56189 7.89842 9.14612C7.27618 8.73035 6.79121 8.13941 6.50482 7.44801C6.21844 6.75661 6.1435 5.99582 6.2895 5.26184C6.4355 4.52786 6.79587 3.85365 7.32504 3.32448C7.85421 2.79531 8.52842 2.43494 9.2624 2.28894C9.99638 2.14294 10.7572 2.21787 11.4486 2.50426C12.14 2.79064 12.7309 3.27562 13.1467 3.89786C13.5625 4.5201 13.7844 5.25166 13.7844 6.00002C13.7832 7.00319 13.3842 7.96494 12.6749 8.67429C11.9655 9.38364 11.0038 9.78266 10.0006 9.7838V9.7838ZM10.0006 2.75677C9.35913 2.75677 8.73208 2.94699 8.19873 3.30336C7.66538 3.65973 7.24969 4.16626 7.00422 4.75888C6.75874 5.35151 6.69452 6.00362 6.81966 6.63274C6.9448 7.26187 7.25369 7.83976 7.70726 8.29334C8.16084 8.74691 8.73873 9.0558 9.36786 9.18094C9.99698 9.30608 10.6491 9.24186 11.2417 8.99638C11.8343 8.75091 12.3409 8.33522 12.6972 7.80187C13.0536 7.26852 13.2438 6.64147 13.2438 6.00002C13.2428 5.14016 12.9008 4.31581 12.2928 3.7078C11.6848 3.0998 10.8604 2.75778 10.0006 2.75677V2.75677Z" fill="#1D1D1D"/>
<path d="M10.0003 7.89188C9.49853 7.89188 9.01732 7.69255 8.66252 7.33776C8.30772 6.98296 8.1084 6.50175 8.1084 5.99999C8.1084 5.49823 8.30772 5.01703 8.66252 4.66223C9.01732 4.30743 9.49853 4.10811 10.0003 4.10811L10.0398 4.10973C10.0805 4.1125 10.1202 4.12391 10.1563 4.1432C10.1923 4.16249 10.2238 4.18922 10.2487 4.22162C10.2731 4.25331 10.2903 4.28994 10.2991 4.32896C10.3079 4.36798 10.3082 4.40846 10.2998 4.44757C10.2815 4.51307 10.2717 4.58065 10.2706 4.64865C10.2706 4.86369 10.356 5.06992 10.508 5.22197C10.6601 5.37403 10.8663 5.45945 11.0814 5.45945C11.2092 5.4583 11.3349 5.42641 11.4479 5.36648C11.4841 5.34788 11.524 5.33769 11.5647 5.33668C11.6054 5.33567 11.6458 5.34386 11.6829 5.36065C11.7199 5.37744 11.7528 5.40238 11.7788 5.43362C11.8049 5.46487 11.8236 5.5016 11.8335 5.54108C11.9046 5.81992 11.9109 6.11135 11.852 6.39301C11.793 6.67467 11.6703 6.9391 11.4934 7.16602C11.3164 7.39295 11.0899 7.57634 10.831 7.70216C10.5722 7.82798 10.2881 7.89287 10.0003 7.89188V7.89188ZM9.73002 4.67567C9.4795 4.72681 9.24863 4.84797 9.06423 5.02508C8.87982 5.20219 8.74944 5.42798 8.68823 5.67623C8.62702 5.92448 8.6375 6.18499 8.71845 6.42753C8.79939 6.67006 8.94748 6.88465 9.14552 7.04638C9.34355 7.20811 9.58341 7.31033 9.83722 7.34119C10.091 7.37204 10.3484 7.33026 10.5794 7.22068C10.8104 7.11111 11.0056 6.93825 11.1423 6.72217C11.279 6.5061 11.3516 6.25568 11.3516 5.99999C11.3516 5.99053 11.3516 5.9808 11.3516 5.97134C11.2628 5.99045 11.1722 6.00006 11.0814 5.99999C10.7277 5.99965 10.3883 5.86086 10.1357 5.61333C9.88313 5.36581 9.73751 5.02923 9.73002 4.67567V4.67567Z" fill="#1D1D1D"/>
</svg>
