<svg width="29" height="29" viewBox="0 0 29 29" fill="none" xmlns="http://www.w3.org/2000/svg">
<circle cx="14.5" cy="14.5" r="14.5" fill="#81CF90"/>
<path d="M21.857 18.1217C21.8131 18.0486 21.5498 17.5373 20.2771 16.5147C18.9606 15.4191 19.1361 15.6017 20.716 13.7391C21.6814 12.6069 22.0764 11.913 21.9448 11.5843C21.9009 11.4017 21.1109 11.4383 21.1109 11.4383H18.6973C18.6973 11.4383 18.3023 11.4383 18.1707 11.6574C17.9074 12.0591 17.7757 12.5339 17.293 13.3009C16.2397 14.9078 15.8009 14.9808 15.6254 14.8713C15.2304 14.6521 15.3182 13.9582 15.3182 13.4469C15.3182 11.913 15.5815 11.2557 14.7916 11.1096C14.5282 11.073 14.3966 11.0365 13.6506 11C12.7729 11 12.0707 11 11.6757 11.1826C11.4124 11.2922 11.193 11.5478 11.3247 11.5843C11.5002 11.5843 11.8513 11.6574 12.0268 11.913C12.2901 12.2052 12.2462 12.8626 12.2462 12.8626C12.2462 12.8626 12.3779 14.6887 11.8952 14.9078C11.588 15.0539 11.1491 14.7617 10.1837 13.3009C9.70094 12.5704 9.65706 12.0956 9.30598 11.7304C9.08656 11.5113 8.73548 11.4383 8.73548 11.4383H6.54125C6.54125 11.4383 6.14628 11.4017 6.05851 11.5113C5.92686 11.6209 6.05851 11.8765 6.05851 11.8765C6.05851 11.8765 7.85779 15.5287 9.87648 17.3913C11.7196 19.0712 13.8261 18.9982 13.8261 18.9982C13.8261 18.9982 15.0549 19.0347 15.2304 18.7791C15.3621 18.6695 15.3621 18.4139 15.3621 18.4139C15.3621 18.4139 15.3621 17.2817 15.9326 17.1356C16.5031 16.9895 17.2491 18.2312 18.0829 18.706C18.6973 19.0347 18.8728 18.9982 19.1361 18.9982C19.7066 18.9982 21.2865 18.9982 21.2865 18.9982C21.2865 18.9982 22.3836 18.8886 21.857 18.1217Z" fill="white"/>
</svg>
