<svg width="34" height="45" viewBox="0 0 34 45" fill="none" xmlns="http://www.w3.org/2000/svg">
<path d="M21.3838 3.4111L21.4501 3.47746C21.4501 3.47746 21.4501 3.4111 21.3838 3.4111Z" fill="white"/>
<path d="M22.7865 1.74053C22.7865 1.74053 22.7197 1.74053 22.7197 1.67371C22.8534 1.74053 22.987 1.80735 23.0538 1.941C22.987 1.87417 22.9202 1.80735 22.7865 1.74053Z" fill="white"/>
<path d="M19.7133 0.270447H19.6465C19.7133 0.270447 19.7801 0.270447 19.7801 0.33723C19.7801 0.270447 19.7801 0.270447 19.7133 0.270447Z" fill="white"/>
<path d="M27.1309 8.42277C27.1309 8.35595 27.1309 8.35595 27.1309 8.28912C27.1309 8.42277 27.1977 8.55641 27.1977 8.69006C27.1977 8.62324 27.1309 8.55641 27.1309 8.42277Z" fill="white"/>
<path d="M26.3949 6.01717C26.3949 6.01717 26.3949 5.95035 26.3281 5.95035C26.3949 6.08399 26.4618 6.21764 26.5286 6.4181C26.4618 6.21764 26.4618 6.08399 26.3949 6.01717Z" fill="white"/>
<path d="M32.2092 29.8728C29.6031 30.1401 27.1975 31.1424 25.126 32.6125L26.8634 44.5737H33.7461L32.2092 29.8728Z" fill="white"/>
<path d="M20.5818 38.0251C19.5795 40.0298 19.0449 42.2349 19.0449 44.5737H23.1211L22.2524 38.0251H20.5818Z" fill="white"/>
<path d="M24.458 7.0195C24.458 7.08632 24.5248 7.15315 24.5248 7.21997C24.5248 7.28679 24.5917 7.28679 24.5917 7.35361C24.5917 7.28679 24.5248 7.21997 24.5248 7.15315C24.5248 7.15315 24.458 7.08632 24.458 7.0195Z" fill="white"/>
<path d="M23.9902 6.21742C24.0566 6.21742 24.0566 6.21742 23.9902 6.21742C24.0566 6.21742 24.0566 6.21742 23.9902 6.21742C23.9902 6.15106 23.9902 6.21742 23.9902 6.21742Z" fill="white"/>
<path d="M32.2076 29.4719L31.5394 23.5247C28.9333 23.7919 26.394 24.5938 24.1221 25.7298L25.0576 32.1447L25.1244 32.6793C27.1291 31.2092 29.6015 30.2069 32.2076 29.9396V29.4719Z" fill="white"/>
<path d="M13.6312 38.0251C12.963 40.0966 12.6289 42.3018 12.6289 44.5737H18.6429H19.1107C19.1107 42.2349 19.6453 40.0298 20.6476 38.0251H20.113H13.6312Z" fill="white"/>
<path d="M30.8719 17.5106V17.4438V17.377L30.7382 15.7733C23.7887 16.5083 17.5742 19.7158 13.0303 24.4602L13.9658 25.8634L16.2377 29.4719H17.4406L23.0536 20.2504H23.3877L24.1896 25.7298C26.4616 24.5938 28.934 23.7919 31.6069 23.5247L30.8719 17.5106Z" fill="white"/>
<path d="M7.61765 37.1564L7.68447 36.555L8.41952 31.276L8.55316 30.4073C6.21438 34.6172 4.87793 39.4284 4.87793 44.5737H6.48167H6.61531H12.6293C12.6293 42.3017 13.0303 40.0966 13.6985 38.0251H7.55083L7.61765 37.1564Z" fill="white"/>
<path d="M30.0033 9.22465H27.2636C27.2636 9.09101 27.2636 8.95736 27.1967 8.82372V8.7569C26.4617 8.89054 25.7266 9.02419 25.0584 9.22465H24.9248H23.1206L22.6528 9.89288L20.6481 13.234L17.0397 19.0476H16.8393L13.8322 14.1695C8.82056 17.377 4.74439 21.7873 1.87103 27.0662L0.935514 35.82L0 44.5737H4.87804C4.87804 39.4284 6.21449 34.6172 8.55327 30.4074L10.0234 20.2504H10.2907L12.9636 24.4602C17.5743 19.7158 23.722 16.5083 30.6715 15.7733L30.0033 9.22465Z" fill="white"/>
<path d="M27.1968 8.75688C27.1968 8.75688 27.1968 8.69006 27.1968 8.75688C27.1968 8.62324 27.1968 8.55641 27.13 8.48959C27.13 8.42277 27.13 8.42277 27.13 8.35595C27.13 8.2223 27.0632 8.08866 27.0632 8.02184C27.0632 7.95501 27.0632 7.88819 26.9963 7.88819C26.9963 7.82137 26.9295 7.68772 26.9295 7.6209C26.8627 7.42043 26.7959 7.21997 26.729 7.0195C26.729 7.0195 26.729 7.0195 26.729 6.95268C26.6622 6.75221 26.5954 6.61856 26.5286 6.4181C26.4618 6.28445 26.4618 6.21763 26.3949 6.08398C26.3281 5.95034 26.2613 5.88352 26.2613 5.74987C26.2613 5.68305 26.2613 5.68305 26.1945 5.61623C26.1276 5.48258 26.0608 5.34894 25.994 5.21529C25.9272 5.08165 25.8603 4.948 25.7267 4.81436C25.5931 4.61389 25.4594 4.41342 25.3258 4.27978C25.1921 4.14613 25.0585 3.94567 24.9917 3.81202C24.9248 3.7452 24.858 3.61156 24.7912 3.54473C24.7244 3.47791 24.6575 3.41109 24.5907 3.34427C24.5239 3.27744 24.4571 3.21062 24.3903 3.1438C24.3234 3.07698 24.2566 3.01015 24.1898 2.87651L24.123 2.80969C23.9893 2.74286 23.9225 2.60922 23.7889 2.5424C23.5884 2.34193 23.3879 2.20828 23.1206 2.00782C23.0538 1.94099 22.987 1.87417 22.8533 1.80735C22.7197 1.74053 22.6529 1.67371 22.5192 1.60688C22.4524 1.54006 22.3188 1.47324 22.2519 1.47324C22.0515 1.20595 21.851 1.13913 21.7174 1.0723C21.7174 1.0723 21.6505 1.0723 21.6505 1.00548H21.5837C21.5169 1.00548 21.4501 0.938659 21.3832 0.871836C21.3164 0.871836 21.2496 0.805014 21.2496 0.805014C21.116 0.738191 21.0491 0.738191 20.9155 0.671369C20.7818 0.604546 20.715 0.604546 20.5814 0.537724C20.5146 0.537724 20.4477 0.470902 20.3809 0.470902C20.3141 0.470902 20.1804 0.404079 20.1136 0.404079C19.98 0.337257 19.8463 0.337257 19.7795 0.270434H19.7127C19.6459 0.270434 19.6459 0.270434 19.579 0.270434C19.3786 0.203612 19.1781 0.13679 18.9108 0.13679C18.844 0.13679 18.7772 0.13679 18.7103 0.0699671C18.7103 0.0699671 18.7103 0.0699671 18.6435 0.0699671C18.5767 0.0699671 18.5099 0.0699671 18.4431 0.00314465H18.3762C18.3094 0.00314465 18.3094 0.00314465 18.2426 0.00314465C18.1758 0.00314465 18.1089 0.00314465 18.1089 0.00314465C18.0421 0.00314465 17.9753 0.00314465 17.9753 0.00314465C17.9753 0.00314465 17.9753 0.00314465 17.9085 0.00314465C17.8417 0.00314465 17.8417 0.00314465 17.7748 0.00314465C17.5075 0.00314465 17.2403 0.00314465 16.973 0.00314465C11.4935 -0.1305 7.08324 4.01249 6.54866 9.22464H3.80894L2.94025 17.2433L2.07156 25.1284L1.87109 27.0662C4.74446 21.8541 8.82063 17.4438 13.7655 14.1695L11.2262 10.0265L10.8253 9.22464H8.7538C9.28838 5.21529 12.6963 2.07464 16.9061 2.07464C17.0398 2.07464 17.2403 2.07464 17.3739 2.07464C17.5075 2.07464 17.5744 2.07464 17.708 2.07464C17.7748 2.07464 17.9085 2.07464 18.0421 2.14146C18.1758 2.14146 18.3094 2.14146 18.3762 2.20828C19.1781 2.34193 19.98 2.60922 20.715 3.01015C20.8487 3.07698 20.9823 3.1438 21.0491 3.21062C21.1828 3.27744 21.3164 3.34427 21.4501 3.41109L21.5169 3.47791C21.5837 3.54473 21.7174 3.61156 21.7842 3.67838C21.851 3.7452 21.9846 3.81202 22.0515 3.87885C22.1851 3.94567 22.2519 4.07931 22.3856 4.14613C22.5192 4.21296 22.586 4.3466 22.7197 4.41342L22.7865 4.54707C22.8533 4.61389 22.9202 4.68071 22.987 4.74754C23.0538 4.88118 23.1875 4.948 23.2543 5.08165C23.3211 5.14847 23.3211 5.14847 23.3879 5.21529C23.4547 5.28212 23.4547 5.34894 23.5216 5.41576C23.5216 5.41576 23.5884 5.48258 23.5884 5.54941C23.5884 5.61623 23.6552 5.61623 23.6552 5.68305C23.722 5.81669 23.7889 5.88352 23.8557 6.01716C23.9225 6.08398 23.9893 6.21763 23.9893 6.28445C24.0561 6.35127 24.0561 6.4181 24.123 6.48492V6.55174C24.1898 6.61856 24.1898 6.68539 24.2566 6.81903V6.88585C24.3234 7.0195 24.3903 7.21997 24.4571 7.35361C24.4571 7.42043 24.5239 7.42043 24.5239 7.48726C24.5907 7.6209 24.5907 7.68772 24.6575 7.82137C24.6575 7.82137 24.6575 7.82137 24.6575 7.88819C24.7244 8.08866 24.7912 8.28912 24.7912 8.48959C24.7912 8.55641 24.858 8.69006 24.858 8.75688V8.8237C24.858 8.95735 24.9248 9.02417 24.9248 9.09099V9.15782V9.22464C24.9248 9.22464 24.9248 9.22464 24.9248 9.29146C24.9248 9.29146 24.9248 9.29146 24.9248 9.22464C25.7267 9.02417 26.4618 8.89053 27.1968 8.75688Z" fill="white"/>
</svg>
