<svg width="29" height="29" viewBox="0 0 29 29" fill="none" xmlns="http://www.w3.org/2000/svg">
<circle cx="14.5" cy="14.5" r="14.5" fill="#81CF90"/>
<path d="M18.6667 10H9.33333C8.02667 10 7 10.99 7 12.25V16.75C7 18.01 8.02667 19 9.33333 19H18.6667C19.9733 19 21 18.01 21 16.75V12.25C21 10.99 19.9733 10 18.6667 10ZM16.1 14.905L12.2733 17.11C11.8533 17.335 11.6667 17.155 11.6667 16.705V12.34C11.6667 11.89 11.9 11.71 12.2733 11.935L16.1 14.095C16.4733 14.32 16.3333 14.725 16.1 14.905Z" fill="white"/>
</svg>
