<svg width="14" height="14" viewBox="0 0 14 14" fill="none" xmlns="http://www.w3.org/2000/svg">
<path fill-rule="evenodd" clip-rule="evenodd" d="M12.5826 4.50028C13.3881 3.69482 13.3881 2.38892 12.5826 1.58346C11.7772 0.778006 10.4712 0.778006 9.66579 1.58346L6.9992 4.25005L4.49942 1.75028C3.69397 0.944821 2.38806 0.944821 1.58261 1.75028C0.777151 2.55573 0.777152 3.86164 1.58261 4.66709L4.08238 7.16687L1.79286 9.4564C0.987403 10.2619 0.987403 11.5678 1.79286 12.3732C2.59832 13.1787 3.90422 13.1787 4.70968 12.3732L6.9992 10.0837L9.45554 12.54C10.261 13.3455 11.5669 13.3455 12.3724 12.54C13.1778 11.7346 13.1778 10.4287 12.3724 9.62321L9.91602 7.16687L12.5826 4.50028Z" fill="white" fill-opacity="0.82"/>
</svg>
