<svg width="29" height="29" viewBox="0 0 29 29" fill="none" xmlns="http://www.w3.org/2000/svg">
<circle cx="14.5" cy="14.5" r="14.5" fill="white"/>
<path d="M13.4231 17.0308C12.4413 16.9284 11.5561 16.6866 10.7982 16.0938C10.7041 16.0201 10.607 15.949 10.5212 15.8666C10.1895 15.548 10.1561 15.1831 10.4186 14.8071C10.6431 14.4853 11.0201 14.3992 11.4119 14.584C11.4878 14.6198 11.5601 14.6645 11.6293 14.7125C13.0418 15.6831 14.9822 15.7099 16.3999 14.7562C16.5404 14.6485 16.6906 14.5607 16.8646 14.5158C17.2029 14.429 17.5185 14.5532 17.7001 14.8493C17.9075 15.1874 17.9049 15.5174 17.6493 15.7799C17.2572 16.1823 16.7857 16.4735 16.2617 16.6767C15.7663 16.8687 15.2237 16.9654 14.6866 17.0296C14.7677 17.1178 14.8059 17.1612 14.8566 17.2121C15.5858 17.9448 16.3182 18.6745 17.0451 19.4094C17.2927 19.6599 17.3445 19.9704 17.2081 20.2616C17.059 20.58 16.7253 20.7894 16.3981 20.767C16.1908 20.7527 16.0291 20.6495 15.8854 20.5048C15.3351 19.951 14.7744 19.4074 14.2353 18.8432C14.0784 18.6791 14.0029 18.7102 13.8644 18.8526C13.3108 19.4226 12.7481 19.9838 12.1821 20.5418C11.928 20.7923 11.6256 20.8374 11.3309 20.6943C11.0176 20.5424 10.8182 20.2227 10.8336 19.9013C10.8442 19.6839 10.9511 19.5178 11.1003 19.3689C11.822 18.6482 12.5417 17.9257 13.2617 17.2039C13.3093 17.1559 13.3537 17.105 13.4231 17.0308Z" fill="#81CF90"/>
<path d="M14.0213 14.5207C12.2698 14.5147 10.8336 13.0627 10.8438 11.3084C10.8539 9.53478 12.291 8.10546 14.0598 8.11036C15.8321 8.11514 17.2547 9.56502 17.2458 11.3571C17.2368 13.1078 15.7906 14.5268 14.0213 14.5207ZM15.6131 11.3127C15.6101 10.4416 14.9164 9.7482 14.047 9.7474C13.1704 9.74647 12.4705 10.4525 12.4773 11.3315C12.4838 12.1992 13.1834 12.8878 14.0551 12.8846C14.9242 12.8815 15.616 12.1836 15.6131 11.3127Z" fill="#81CF90"/>
</svg>
