<svg width="20" height="20" viewBox="0 0 20 20" fill="none" xmlns="http://www.w3.org/2000/svg">
<g clip-path="url(#clip0)">
<path d="M16.6406 19.3743H3.35938C2.36859 19.3743 1.5625 18.5682 1.5625 17.5774V8.12353C1.5625 7.77838 1.8423 7.49854 2.1875 7.49854C2.5327 7.49854 2.8125 7.77838 2.8125 8.12353V17.5774C2.8125 17.879 3.05781 18.1243 3.35938 18.1243H16.6406C16.9422 18.1243 17.1875 17.879 17.1875 17.5774V8.12353C17.1875 7.77838 17.4673 7.49854 17.8125 7.49854C18.1577 7.49854 18.4375 7.77838 18.4375 8.12353V17.5774C18.4375 18.5682 17.6314 19.3743 16.6406 19.3743Z" fill="#2DB346"/>
<path d="M19.3752 10.3109C19.2153 10.3109 19.0554 10.2499 18.9333 10.1278L11.1603 2.35485C10.5207 1.71517 9.47984 1.71517 8.84016 2.35485L1.06719 10.1278C0.823125 10.3719 0.427383 10.3719 0.18332 10.1278C-0.0607813 9.88378 -0.0607813 9.48803 0.18332 9.24397L7.95629 1.47095C9.08332 0.343913 10.9172 0.343913 12.0442 1.47095L19.8171 9.24393C20.0613 9.48803 20.0613 9.88374 19.8171 10.1278C19.6952 10.2499 19.5352 10.3109 19.3752 10.3109Z" fill="#2DB346"/>
<path d="M12.5 19.3743H7.5C7.1548 19.3743 6.875 19.0945 6.875 18.7493V13.2025C6.875 12.1255 7.75117 11.2493 8.82812 11.2493H11.1719C12.2488 11.2493 13.125 12.1255 13.125 13.2025V18.7493C13.125 19.0945 12.8452 19.3743 12.5 19.3743ZM8.125 18.1243H11.875V13.2025C11.875 12.8148 11.5596 12.4993 11.1719 12.4993H8.82812C8.44043 12.4993 8.125 12.8148 8.125 13.2025V18.1243Z" fill="#2DB346"/>
</g>
<defs>
<clipPath id="clip0">
<rect width="20" height="20" fill="white"/>
</clipPath>
</defs>
</svg>
