<svg width="15" height="15" viewBox="0 0 15 15" fill="none" xmlns="http://www.w3.org/2000/svg">
<path d="M7.49984 7.08367C5.54678 7.08367 3.95801 5.4949 3.95801 3.54184C3.95801 1.58878 5.54678 0 7.49984 0C9.45291 0 11.0417 1.58878 11.0417 3.54184C11.0417 5.4949 9.45291 7.08367 7.49984 7.08367ZM7.49984 1.24898C6.23556 1.24898 5.20699 2.27755 5.20699 3.54184C5.20699 4.80612 6.23556 5.83469 7.49984 5.83469C8.76413 5.83469 9.7927 4.80612 9.7927 3.54184C9.7927 2.27755 8.76413 1.24898 7.49984 1.24898Z" fill="#2DB346"/>
<path d="M14.3755 15H0.62449C0.278571 15 0 14.7214 0 14.3755C0 12.3337 0.795918 10.4204 2.23776 8.98776C3.16837 8.06327 4.48163 7.53368 5.83776 7.53368H9.16224C10.5214 7.53368 11.8316 8.06327 12.7622 8.98776C14.2041 10.4204 15 12.3337 15 14.3755C15 14.7214 14.7214 15 14.3755 15ZM1.27959 13.751H13.7204C13.5796 12.2816 12.9367 10.9225 11.8806 9.87551C11.1827 9.18368 10.1908 8.78572 9.16224 8.78572H5.83776C4.80612 8.78572 3.81735 9.18368 3.11939 9.87551C2.06327 10.9225 1.42041 12.2816 1.27959 13.751Z" fill="#2DB346"/>
</svg>
