<svg width="20" height="18" viewBox="0 0 20 18" fill="none" xmlns="http://www.w3.org/2000/svg">
<path d="M16.4374 3.67578H3.46887C3.28962 3.67578 3.14453 3.8211 3.14453 4.00012V13.0782C3.14453 13.2572 3.28985 13.4023 3.46887 13.4023H16.4374C16.6164 13.4023 16.7615 13.2572 16.7615 13.0782V4.00012C16.7615 3.8211 16.6164 3.67578 16.4374 3.67578ZM4.09879 12.7538L6.71088 9.09685L8.14081 11.0955L7.17339 12.7538H4.09879ZM7.92452 12.7538L11.8982 5.94055L15.8729 12.7538H7.92452ZM16.113 4.32423V11.8786L12.1786 5.13473C12.0746 4.98004 11.8648 4.93897 11.7101 5.04299C11.6739 5.06732 11.6427 5.09857 11.6183 5.13473L8.49863 10.4844L6.97495 8.35331C6.91446 8.26715 6.81624 8.21536 6.71088 8.21491C6.60619 8.21491 6.50798 8.26536 6.44704 8.35063L3.7932 12.0661V4.32423H16.113Z" fill="#80FF8C"/>
<path d="M19.6071 11.9956L18.7071 8.63643V2.7033C18.7071 2.16624 18.2716 1.73074 17.7345 1.73074H16.8553L16.5852 0.71778C16.4439 0.201031 15.9117 -0.105 15.3941 0.0331714L9.05493 1.73074H2.17224C1.63518 1.73074 1.19968 2.16624 1.19968 2.7033V3.83524L0.98829 3.89149C0.471095 4.03279 0.163947 4.56405 0.299664 5.0828L1.19968 8.44201V14.3751C1.19968 14.9122 1.63518 15.3477 2.17224 15.3477H3.05149L3.32159 16.3604C3.4611 16.8783 3.99392 17.185 4.51178 17.0455C4.51201 17.0453 4.51245 17.0453 4.51267 17.0453L10.8518 15.3477H17.7345C18.2716 15.3477 18.7071 14.9122 18.7071 14.3749V13.2432L18.9185 13.1867C19.4357 13.0457 19.7428 12.5144 19.6071 11.9956ZM15.5622 0.66086C15.7343 0.614877 15.9111 0.716218 15.9584 0.887649L16.1834 1.73074H11.5614L15.5622 0.66086ZM0.926236 4.91606C0.881146 4.74262 0.983826 4.56516 1.15637 4.51762L1.19968 4.50623V5.93661L0.926236 4.91606ZM4.34437 16.4191C4.17249 16.4651 3.9957 16.3638 3.94816 16.1924L3.72271 15.3477H8.34532L4.34437 16.4191ZM18.0586 14.3751C18.0586 14.5542 17.9136 14.6992 17.7345 14.6992H2.17224C1.99322 14.6992 1.84812 14.5542 1.84812 14.3751V2.7033C1.84812 2.52428 1.99322 2.37919 2.17224 2.37919H17.7345C17.9136 2.37919 18.0586 2.52428 18.0586 2.7033V14.3751ZM18.7502 12.5595L18.7071 12.572V11.1416L18.9805 12.1622C19.0247 12.3351 18.9223 12.5119 18.7502 12.5595Z" fill="#80FF8C"/>
<path d="M8.00832 7.89069C8.72463 7.89069 9.30522 7.3101 9.30522 6.59401C9.30522 5.87771 8.72463 5.29712 8.00832 5.29712C7.29202 5.29712 6.71143 5.87771 6.71143 6.59401C6.71143 7.3101 7.29202 7.89069 8.00832 7.89069ZM8.00832 5.94557C8.36636 5.94557 8.65677 6.23575 8.65677 6.59401C8.65677 6.95206 8.36636 7.24224 8.00832 7.24224C7.65028 7.24224 7.35987 6.95206 7.35987 6.59401C7.35987 6.23575 7.65028 5.94557 8.00832 5.94557Z" fill="#80FF8C"/>
</svg>
