<svg width="20" height="29" viewBox="0 0 20 29" fill="none" xmlns="http://www.w3.org/2000/svg">
<path d="M10 0C4.48604 0 0 4.48604 0 10C0 16.9305 10.0098 28.7691 10.0098 28.7691C10.0098 28.7691 20 16.5896 20 10C20 4.48604 15.5141 0 10 0ZM13.0172 12.928C12.1853 13.7598 11.0927 14.1758 10 14.1758C8.90746 14.1758 7.81457 13.7598 6.98297 12.928C5.31923 11.2644 5.31923 8.55751 6.98297 6.89377C7.78859 6.0878 8.86023 5.6439 10 5.6439C11.1398 5.6439 12.2112 6.08797 13.0172 6.89377C14.6809 8.55751 14.6809 11.2644 13.0172 12.928Z" fill="#81CF90"/>
</svg>
